<svg width="151" height="40" viewBox="0 0 151 40" fill="none" xmlns="http://www.w3.org/2000/svg">
<path fill-rule="evenodd" clip-rule="evenodd" d="M30 10H29.5917V13.364H30C35.8645 13.364 40.6358 18.135 40.6358 23.9992C40.6358 29.8633 35.8645 34.636 30 34.636C24.2704 34.636 19.5852 30.0827 19.3709 24.4074H27.692V21.0553H16V38H19.3524V33.062C22.0046 36.1729 25.9036 38 30 38C37.7204 38 44 31.7191 44 23.9992C44 16.2809 37.7204 10 30 10Z" fill="white"/>
<path fill-rule="evenodd" clip-rule="evenodd" d="M13.6663 4.13974C19.2597 4.13974 23.8336 8.63807 24.0428 14.2464H15.9195V17.5564H27.3353V0.816406H24.0609V5.68307C21.4734 2.61641 17.6687 0.816406 13.6663 0.816406C6.13102 0.816406 -0.000976562 7.02141 -0.000976562 14.6481C-0.000976562 22.2731 6.13102 28.4781 13.6663 28.4781H14.0649V25.1547H13.6663C7.94114 25.1547 3.28326 20.4431 3.28326 14.6481C3.28326 8.85307 7.94114 4.13974 13.6663 4.13974Z" fill="#00ACA9"/>
<path fill-rule="evenodd" clip-rule="evenodd" d="M47.2699 31.2034C47.489 29.778 48.5705 28.8271 50.0543 28.8271C51.5552 28.8271 52.6367 29.7966 52.82 31.2034H47.2699ZM50.0543 27C47.1426 27 45 29.0831 45 31.9898C45 34.8983 47.1239 37 50.4024 37C52.0866 37 53.4601 36.4525 54.3396 35.4085L53.1121 34.0017C52.4177 34.7136 51.5552 35.061 50.4567 35.061C48.7538 35.061 47.5637 34.1475 47.2886 32.722H54.9626C54.9813 32.5034 55 32.2271 55 32.0458C55 28.9915 52.9117 27 50.0543 27Z" fill="white"/>
<path fill-rule="evenodd" clip-rule="evenodd" d="M58.2699 31.2034C58.489 29.778 59.5705 28.8271 61.0543 28.8271C62.5552 28.8271 63.6367 29.7966 63.82 31.2034H58.2699ZM61.0543 27C58.1426 27 56 29.0831 56 31.9898C56 34.8983 58.1239 37 61.4024 37C63.0866 37 64.4601 36.4525 65.3396 35.4085L64.1121 34.0017C63.4177 34.7136 62.5552 35.061 61.4567 35.061C59.7538 35.061 58.5637 34.1475 58.2886 32.722H65.9626C65.9813 32.5034 66 32.2271 66 32.0458C66 28.9915 63.9117 27 61.0543 27Z" fill="white"/>
<path fill-rule="evenodd" clip-rule="evenodd" d="M70.3107 28.5554V27.1099H68V37H70.4259V32.2034C70.4259 30.1845 71.5921 29.1476 73.4367 29.1476C73.6113 29.1476 73.7858 29.1648 74 29.2026V27C72.2705 27 71.009 27.5185 70.3107 28.5554Z" fill="white"/>
<path fill-rule="evenodd" clip-rule="evenodd" d="M81.0127 26.0573C82.3572 26.0573 83.5157 26.5444 84.4541 27.5388L86 26.1109C84.8039 24.7399 83.0004 24 80.9017 24C76.945 24 74 26.7252 74 30.5C74 34.2731 76.945 37 80.883 37C83.0004 37 84.8039 36.2618 86 34.8875L84.4541 33.4428C83.5157 34.4556 82.3572 34.9427 81.0127 34.9427C78.3441 34.9427 76.4109 33.0997 76.4109 30.5C76.4109 27.9003 78.3441 26.0573 81.0127 26.0573Z" fill="#00ACA9"/>
<path fill-rule="evenodd" clip-rule="evenodd" d="M91.9902 35.0441C90.4083 35.0441 89.2124 33.8559 89.2124 31.9898C89.2124 30.1271 90.4083 28.9373 91.9902 28.9373C93.5901 28.9373 94.7843 30.1271 94.7843 31.9898C94.7843 33.8559 93.5901 35.0441 91.9902 35.0441ZM91.9902 27C89.1082 27 87 29.0661 87 31.9898C87 34.9169 89.1082 37 91.9902 37C94.9081 37 97 34.9169 97 31.9898C97 29.0661 94.9081 27 91.9902 27Z" fill="#00ACA9"/>
<path fill-rule="evenodd" clip-rule="evenodd" d="M104.184 27C102.851 27 101.739 27.4807 101.036 28.3888V27.1099H99V37H101.139V31.9991C101.139 30.018 102.165 29.0189 103.688 29.0189C105.057 29.0189 105.861 29.8704 105.861 31.6283V37H108V31.333C108 28.3511 106.374 27 104.184 27Z" fill="#00ACA9"/>
<path fill-rule="evenodd" clip-rule="evenodd" d="M116.014 28.9387C116.937 28.9387 117.771 29.3589 118.33 30.291L120 29.2674C119.287 27.7863 117.841 27 116.032 27C113.09 27 111 29.0658 111 31.9907C111 34.9156 113.09 37 116.032 37C117.841 37 119.287 36.1764 120 34.7139L118.33 33.6921C117.771 34.6224 116.937 35.0444 116.014 35.0444C114.412 35.0444 113.193 33.8921 113.193 31.9907C113.193 30.1079 114.412 28.9387 116.014 28.9387Z" fill="#00ACA9"/>
<path fill-rule="evenodd" clip-rule="evenodd" d="M123.27 31.2034C123.489 29.778 124.57 28.8271 126.054 28.8271C127.555 28.8271 128.637 29.7966 128.82 31.2034H123.27ZM126.054 27C123.143 27 121 29.0831 121 31.9898C121 34.8983 123.124 37 126.402 37C128.087 37 129.46 36.4525 130.34 35.4085L129.112 34.0017C128.418 34.7136 127.555 35.061 126.457 35.061C124.754 35.061 123.564 34.1475 123.289 32.722H130.963C130.981 32.5034 131 32.2271 131 32.0458C131 28.9915 128.912 27 126.054 27Z" fill="#00ACA9"/>
<path fill-rule="evenodd" clip-rule="evenodd" d="M137.973 34.7921C136.386 34.7921 135.169 33.6412 135.169 31.8335C135.169 30.0292 136.386 28.8766 137.973 28.8766C139.56 28.8766 140.76 30.0292 140.76 31.8335C140.76 33.6412 139.56 34.7921 137.973 34.7921ZM138.22 27C136.933 27 135.84 27.4417 135.099 28.3447V27.1051H133V40H135.204V35.4127C135.962 36.2796 137.02 36.6868 138.22 36.6868C140.971 36.6868 143 34.7741 143 31.8335C143 28.9127 140.971 27 138.22 27Z" fill="#00ACA9"/>
<path fill-rule="evenodd" clip-rule="evenodd" d="M150.376 34.7232C150.037 34.9966 149.59 35.1232 149.126 35.1232C148.269 35.1232 147.804 34.6152 147.804 33.6684V29.0439H150.358V27.2228H147.804V25H145.572V27.2228H144V29.0439H145.572V33.7224C145.572 35.8709 146.769 37 148.858 37C149.661 37 150.465 36.7823 151 36.3451L150.376 34.7232Z" fill="#00ACA9"/>
</svg>
