<svg xmlns="http://www.w3.org/2000/svg" viewBox="0 0 834.15 356.7"><defs><style>.cls-1{fill:#1d1d1b;}</style></defs><g id="Layer_2" data-name="Layer 2"><g id="Layer_1-2" data-name="Layer 1"><path class="cls-1" d="M565.07,98.51a5.48,5.48,0,1,1,0-11l65.67-.31h0a5.48,5.48,0,0,1,0,11l-65.67.31Zm169.65,38.31a5.48,5.48,0,0,0-5.48-5.48H718.3a5.48,5.48,0,0,0,0,10.95h10.94A5.47,5.47,0,0,0,734.72,136.82Zm-54.73,0a5.47,5.47,0,0,0-5.47-5.48H630.74a5.48,5.48,0,1,0,0,10.95h43.78A5.47,5.47,0,0,0,680,136.82ZM658.1,114.93V71.14a5.47,5.47,0,1,0-10.94,0v43.79a5.47,5.47,0,0,0,10.94,0Zm0,65.67V158.71a5.47,5.47,0,1,0-10.94,0V180.6a5.47,5.47,0,0,0,10.94,0Zm43.78-10.95V114.93a5.47,5.47,0,1,0-10.94,0v54.72a5.47,5.47,0,0,0,10.94,0ZM745.66,93a5.47,5.47,0,0,0-5.47-5.47H674.52a5.48,5.48,0,0,0,0,11h65.67A5.47,5.47,0,0,0,745.66,93ZM614.32,169.65V114.93a5.48,5.48,0,1,0-11,0v54.72a5.48,5.48,0,0,0,11,0Zm87.56-98.51V16.42a5.47,5.47,0,0,0-10.94,0V71.14a5.47,5.47,0,1,0,10.94,0ZM680,49.25a5.47,5.47,0,0,0-5.47-5.47H630.74a5.48,5.48,0,1,0,0,10.95h43.78A5.47,5.47,0,0,0,680,49.25Zm54.73,0a5.47,5.47,0,0,0-5.48-5.47H718.3a5.48,5.48,0,0,0,0,10.95h10.94A5.48,5.48,0,0,0,734.72,49.25ZM614.32,71.14V16.42a5.48,5.48,0,0,0-11,0V71.14a5.48,5.48,0,1,0,11,0Zm-21.89,65.68a5.47,5.47,0,0,0-5.47-5.48H576a5.48,5.48,0,0,0,0,10.95h11A5.47,5.47,0,0,0,592.43,136.82ZM658.1,27.36V5.47a5.47,5.47,0,0,0-10.94,0V27.36a5.47,5.47,0,1,0,10.94,0ZM592.43,49.25A5.47,5.47,0,0,0,587,43.78H576a5.48,5.48,0,0,0,0,10.95h11A5.47,5.47,0,0,0,592.43,49.25ZM57.34,312.18H87.22a31.83,31.83,0,0,1-4.08,14.34c-5.73,10.11-17.35,16.9-30.78,16.9-19,0-40.89-13.89-40.89-41.35,0-23.39,16.9-41.65,41.19-41.65,12.07,0,19.62,4.53,24.45,8.45a52.92,52.92,0,0,1,9.5,10.42l8.3-7.55a61.37,61.37,0,0,0-11.62-11.92c-9.8-7.54-21.12-10-30.78-10-30,0-52.51,22.79-52.51,52.06S22.33,354,52.21,354c23.09,0,34.4-14,37.42-18.11,6.34-8.6,9.66-20.67,9.66-31.84v-2.41H57.34Zm175-60.66H180.17V352.17h52.21V341.61h-41V302.52h39.84V292H191.33V262.08h41Zm92,100.65V274.46l78.47,82.24V251.52H391.72v78L313.26,247.3V352.17Zm176-100.65H489.2v64.74c0,8.45.91,16.59,6.34,24.14,6,8.3,16.6,13.58,29.42,13.58s23.39-5.28,29.43-13.58c5.43-7.55,6.34-15.69,6.34-24.14V251.52H549.56v61.72c0,8.45,0,17.65-8,24.44-4.07,3.47-11,5.74-16.6,5.74s-12.52-2.27-16.59-5.74c-8-6.79-8-16-8-24.44Zm146.67,0V352.17H658.2V251.52ZM755.68,352.17V274.46l78.47,82.24V251.52H823v78L744.52,247.3V352.17Z"/></g></g></svg>